<svg width="236.84" height="28.96" viewBox="0 0 236.84 28.96" xmlns="http://www.w3.org/2000/svg"><g id="svgGroup" stroke-linecap="round" fill-rule="evenodd" font-size="9pt" stroke="#000" stroke-width="0.25mm" fill="#000" style="stroke:#000;stroke-width:0.25mm;fill:#000"><path d="M 167.76 28.48 L 164.16 28.48 L 164.16 0.48 L 169.48 0.48 L 177.24 18.2 L 184.88 0.48 L 190.32 0.48 L 190.32 28.48 L 186.52 28.48 L 186.52 5.32 L 179.04 22.16 L 175.28 22.16 L 167.76 5.32 L 167.76 28.48 Z M 130.16 2.28 L 128.76 5.44 Q 127.08 4.52 125.34 3.92 Q 123.6 3.32 121.48 3.32 A 8.052 8.052 0 0 0 118.486 3.868 A 7.568 7.568 0 0 0 117 4.66 Q 115.04 6 113.9 8.6 Q 112.912 10.855 112.78 13.982 A 23.325 23.325 0 0 0 112.76 14.96 Q 112.76 17.884 113.548 20.065 A 10.415 10.415 0 0 0 113.8 20.7 A 9.672 9.672 0 0 0 114.973 22.719 A 7.641 7.641 0 0 0 116.68 24.36 A 7.172 7.172 0 0 0 120.604 25.634 A 8.797 8.797 0 0 0 120.92 25.64 Q 123.16 25.64 124.9 24.7 A 16.144 16.144 0 0 0 126.101 23.987 Q 126.672 23.611 127.131 23.226 A 7.975 7.975 0 0 0 127.64 22.76 L 127.64 16.64 L 121.84 16.64 L 121.84 13.64 L 131.24 13.64 L 131.24 28.48 L 127.88 28.48 L 127.88 25.68 A 14.353 14.353 0 0 1 126.129 26.997 A 18.942 18.942 0 0 1 124.48 27.94 A 9.437 9.437 0 0 1 120.718 28.94 A 11.252 11.252 0 0 1 120.04 28.96 A 10.629 10.629 0 0 1 116.315 28.32 A 9.804 9.804 0 0 1 114.28 27.28 A 10.755 10.755 0 0 1 111.108 23.961 A 13.58 13.58 0 0 1 110.32 22.5 A 15.012 15.012 0 0 1 109.157 18.672 A 20.735 20.735 0 0 1 108.88 15.2 A 22.52 22.52 0 0 1 109.214 11.233 A 17.029 17.029 0 0 1 110.4 7.3 A 13.092 13.092 0 0 1 112.714 3.721 A 11.782 11.782 0 0 1 114.78 1.94 A 11.133 11.133 0 0 1 119.328 0.18 A 14.825 14.825 0 0 1 121.68 0 A 18.103 18.103 0 0 1 124.068 0.15 A 13.444 13.444 0 0 1 126.32 0.64 Q 128.36 1.28 130.16 2.28 Z M 214.32 28.48 L 197.52 28.48 L 197.52 0.48 L 214.32 0.48 L 214.32 3.76 L 201.32 3.76 L 201.32 12.28 L 212.52 12.28 L 212.52 15.48 L 201.32 15.48 L 201.32 25.2 L 214.32 25.2 L 214.32 28.48 Z M 217.32 26.12 L 219.24 22.92 Q 220.68 24.12 222.48 24.88 A 9.339 9.339 0 0 0 224.628 25.484 A 12.847 12.847 0 0 0 226.68 25.64 A 11.192 11.192 0 0 0 228.499 25.502 Q 229.468 25.342 230.253 24.997 A 5.48 5.48 0 0 0 231.24 24.44 Q 232.92 23.24 232.92 21.2 Q 232.92 20.04 232.44 19.14 Q 231.96 18.24 230.58 17.38 A 12.842 12.842 0 0 0 229.591 16.829 Q 228.363 16.208 226.52 15.52 A 36.165 36.165 0 0 1 224.677 14.748 Q 223.774 14.338 223.025 13.925 A 15.798 15.798 0 0 1 221.92 13.26 A 8.773 8.773 0 0 1 220.685 12.281 Q 219.9 11.527 219.46 10.66 A 6.667 6.667 0 0 1 218.852 8.791 A 9.171 9.171 0 0 1 218.72 7.2 Q 218.72 5.2 219.82 3.58 A 6.871 6.871 0 0 1 221.602 1.805 A 9.354 9.354 0 0 1 223.06 0.98 Q 224.999 0.092 227.677 0.009 A 18.092 18.092 0 0 1 228.24 0 Q 230.72 0 232.7 0.5 Q 234.68 1 236.56 1.92 L 235.16 5.16 A 12.598 12.598 0 0 0 233.51 4.353 A 16.674 16.674 0 0 0 231.98 3.82 Q 230.16 3.28 228.16 3.28 A 10.875 10.875 0 0 0 226.548 3.392 Q 225.695 3.52 225 3.795 A 5.047 5.047 0 0 0 224 4.32 Q 222.48 5.36 222.48 7 A 4.186 4.186 0 0 0 222.597 8.009 A 3.425 3.425 0 0 0 222.92 8.84 A 2.765 2.765 0 0 0 223.348 9.41 Q 223.827 9.913 224.66 10.4 A 13.201 13.201 0 0 0 225.547 10.869 Q 226.732 11.445 228.56 12.12 A 32.491 32.491 0 0 1 230.552 12.932 Q 232.306 13.72 233.5 14.56 A 10.417 10.417 0 0 1 234.716 15.551 Q 235.348 16.156 235.771 16.805 A 5.692 5.692 0 0 1 236.08 17.34 A 7.031 7.031 0 0 1 236.777 19.685 A 8.862 8.862 0 0 1 236.84 20.76 A 8.684 8.684 0 0 1 236.573 22.96 A 6.842 6.842 0 0 1 235.54 25.2 A 7.847 7.847 0 0 1 232.768 27.609 A 9.743 9.743 0 0 1 231.94 28 A 12.209 12.209 0 0 1 228.976 28.802 A 16.011 16.011 0 0 1 226.68 28.96 A 18.947 18.947 0 0 1 223.57 28.715 A 15.22 15.22 0 0 1 221.36 28.18 A 15.282 15.282 0 0 1 219.214 27.307 A 11.373 11.373 0 0 1 217.32 26.12 Z M 19.56 1.44 L 18.4 4.64 Q 17.16 4.04 15.86 3.68 Q 14.743 3.371 13.286 3.327 A 16.282 16.282 0 0 0 12.8 3.32 A 8.469 8.469 0 0 0 9.638 3.902 A 7.992 7.992 0 0 0 8.22 4.64 A 8.467 8.467 0 0 0 5.674 7.273 A 10.791 10.791 0 0 0 5.04 8.44 Q 3.88 10.92 3.88 14.44 A 16.745 16.745 0 0 0 4.127 17.382 A 12.372 12.372 0 0 0 5.02 20.32 A 10.271 10.271 0 0 0 6.455 22.651 A 8.569 8.569 0 0 0 8.18 24.24 Q 10.2 25.64 12.8 25.64 A 13.486 13.486 0 0 0 14.389 25.551 Q 15.193 25.456 15.886 25.257 A 7.712 7.712 0 0 0 16.2 25.16 Q 17.64 24.68 19 23.92 L 20.16 27.08 Q 18.68 27.88 16.78 28.42 A 13.437 13.437 0 0 1 14.794 28.817 Q 13.801 28.942 12.683 28.958 A 22.967 22.967 0 0 1 12.36 28.96 A 12.954 12.954 0 0 1 8.63 28.44 A 11.184 11.184 0 0 1 5.92 27.22 Q 3.12 25.48 1.56 22.26 A 15.044 15.044 0 0 1 0.321 18.373 Q 0 16.612 0 14.6 Q 0 10.32 1.58 7.02 Q 3.16 3.72 6.06 1.86 A 11.748 11.748 0 0 1 11.132 0.096 A 14.917 14.917 0 0 1 12.84 0 A 18.256 18.256 0 0 1 14.864 0.107 A 14.08 14.08 0 0 1 16.48 0.38 Q 18.12 0.76 19.56 1.44 Z M 84.84 28.48 L 81.04 28.48 L 81.04 17.84 L 71.32 2.04 L 74.52 0.12 L 83.08 14.32 L 91.48 0.28 L 94.48 2.04 L 84.84 17.84 L 84.84 28.48 Z M 48.08 27.48 L 44.6 28.88 L 41.48 20.88 L 28.52 20.88 L 25.4 28.8 L 22.16 27.48 L 33.12 0.48 L 37.28 0.48 L 48.08 27.48 Z M 160.16 27.48 L 156.68 28.88 L 153.56 20.88 L 140.6 20.88 L 137.48 28.8 L 134.24 27.48 L 145.2 0.48 L 149.36 0.48 L 160.16 27.48 Z M 55.88 28.48 L 52.08 28.48 L 52.08 0.56 Q 53.72 0.36 55.7 0.26 A 80.323 80.323 0 0 1 59.272 0.162 A 88.786 88.786 0 0 1 59.8 0.16 Q 62.828 0.16 65.069 0.993 A 10.404 10.404 0 0 1 65.72 1.26 A 9.843 9.843 0 0 1 67.753 2.472 A 7.749 7.749 0 0 1 69.44 4.28 A 7.659 7.659 0 0 1 70.712 8.287 A 9.359 9.359 0 0 1 70.72 8.68 A 10.103 10.103 0 0 1 70.437 11.129 A 7.707 7.707 0 0 1 69.24 13.76 A 8.925 8.925 0 0 1 66.22 16.412 A 11.226 11.226 0 0 1 65.12 16.94 A 13.91 13.91 0 0 1 61.884 17.83 A 18.878 18.878 0 0 1 59 18.04 A 41.609 41.609 0 0 1 57.186 18.002 A 33.171 33.171 0 0 1 55.88 17.92 L 55.88 28.48 Z M 55.88 3.52 L 55.88 14.68 A 19.188 19.188 0 0 0 56.4 14.737 Q 56.632 14.76 56.893 14.781 A 38.501 38.501 0 0 0 57.44 14.82 Q 58.36 14.88 59.48 14.88 A 12.732 12.732 0 0 0 61.632 14.71 Q 62.784 14.512 63.706 14.084 A 6.088 6.088 0 0 0 65 13.28 A 5.159 5.159 0 0 0 66.942 9.503 A 6.928 6.928 0 0 0 66.96 9 A 5.781 5.781 0 0 0 66.656 7.083 A 4.854 4.854 0 0 0 65.08 4.88 A 6.185 6.185 0 0 0 63.048 3.815 Q 62.158 3.531 61.08 3.424 A 13.832 13.832 0 0 0 59.72 3.36 Q 58.64 3.36 57.68 3.4 Q 56.72 3.44 55.88 3.52 Z M 35 4.24 L 29.72 17.68 L 40.24 17.68 L 35 4.24 Z M 147.08 4.24 L 141.8 17.68 L 152.32 17.68 L 147.08 4.24 Z" vector-effect="non-scaling-stroke"/></g></svg>
