<svg width="451.124" height="99.512" viewBox="0 0 451.124 99.512" xmlns="http://www.w3.org/2000/svg"><g id="svgGroup" stroke-linecap="round" fill-rule="evenodd" font-size="9pt" stroke="#000" stroke-width="0.25mm" fill="#000" style="stroke:#000;stroke-width:0.25mm;fill:#000"><path d="M 350.831 1.612 L 350.635 1.612 A 1.536 1.536 0 0 0 349.997 1.762 C 349.678 1.907 349.345 2.157 348.996 2.512 A 6.263 6.263 0 0 0 348.877 2.637 C 348.194 3.467 347.413 5.42 346.485 8.399 A 217.177 217.177 0 0 0 345.34 12.445 C 344.318 16.191 343.193 20.625 341.968 25.75 A 718.414 718.414 0 0 0 341.358 28.321 L 338.233 41.114 C 334.682 55.633 331.503 65.517 328.735 70.843 A 25.806 25.806 0 0 1 328.028 72.12 C 327.668 72.72 327.275 73.221 326.876 73.598 A 4.281 4.281 0 0 1 326.612 73.829 C 326.612 73.875 326.612 73.877 326.569 73.877 A 2.791 2.791 0 0 1 326.563 73.877 A 1.315 1.315 0 0 1 326.412 74.009 C 326.36 74.047 326.308 74.077 326.256 74.096 A 0.379 0.379 0 0 1 326.124 74.121 L 325.928 74.024 A 6.565 6.565 0 0 1 325.014 73.017 C 324.438 72.252 323.844 71.222 323.245 69.922 A 35.257 35.257 0 0 1 322.364 67.823 C 319.942 61.283 317.664 53.783 315.53 45.416 A 317.378 317.378 0 0 1 315.479 45.215 C 312.807 35.148 310.881 29.183 309.656 27.276 A 4.264 4.264 0 0 0 309.571 27.149 A 5.149 5.149 0 0 0 308.982 26.471 C 308.471 25.985 307.935 25.733 307.374 25.733 A 1.628 1.628 0 0 0 306.673 25.898 C 306.519 25.971 306.364 26.068 306.21 26.189 A 3.288 3.288 0 0 0 306.055 26.319 C 305.171 27.159 304.367 28.519 303.679 30.473 A 22.464 22.464 0 0 0 303.467 31.104 A 53.397 53.397 0 0 0 301.94 37.863 C 301.126 42.763 300.61 48.814 300.401 56.016 A 267.318 267.318 0 0 0 300.293 63.77 A 220.189 220.189 0 0 0 300.718 77.632 A 189.667 189.667 0 0 0 301.417 85.889 C 301.46 86.366 301.812 86.651 302.164 86.708 A 0.818 0.818 0 0 0 302.295 86.719 C 302.871 86.719 303.211 86.248 303.223 85.862 A 0.681 0.681 0 0 0 303.223 85.84 L 303.223 85.694 A 179.194 179.194 0 0 1 302.562 74.185 A 210.244 210.244 0 0 1 302.491 68.653 A 257.854 257.854 0 0 1 302.776 56.084 C 303.165 48.149 303.95 41.474 305.132 36.048 A 65.865 65.865 0 0 1 305.567 34.18 A 32.39 32.39 0 0 1 306.085 32.399 C 306.475 31.196 306.888 30.216 307.325 29.444 A 9.87 9.87 0 0 1 307.679 30.152 A 11.355 11.355 0 0 1 308.008 30.957 C 309.155 34.265 310.421 38.729 311.843 44.348 A 410.47 410.47 0 0 1 312.305 46.192 A 316.016 316.016 0 0 0 314.511 54.907 C 316.909 63.807 319.133 70.094 321.169 73.768 A 13.845 13.845 0 0 0 322.95 76.368 A 6.699 6.699 0 0 0 323.629 76.964 C 324.231 77.422 324.843 77.705 325.445 77.82 A 3.329 3.329 0 0 0 326.075 77.881 C 327.147 77.881 328.219 77.401 329.268 76.464 A 9.863 9.863 0 0 0 330.127 75.586 C 332.032 73.243 333.887 69.287 335.792 63.77 A 201.549 201.549 0 0 0 338.984 53.547 C 340.015 49.927 341.016 46.094 341.993 42.041 A 988.147 988.147 0 0 0 345.134 28.92 A 2149.227 2149.227 0 0 0 345.557 27.1 A 695.695 695.695 0 0 1 346.881 21.341 C 348.679 13.677 349.995 8.811 350.828 6.745 A 13.754 13.754 0 0 1 350.831 6.739 L 351.172 8.204 A 74.911 74.911 0 0 1 351.878 13.032 C 352.257 16.292 352.552 20.171 352.762 24.661 A 301.934 301.934 0 0 1 352.93 28.955 A 1504.302 1504.302 0 0 1 353.467 68.262 L 353.467 71.534 A 1839.991 1839.991 0 0 0 353.476 77.108 C 353.489 81.654 353.518 85.566 353.55 88.831 A 1994.572 1994.572 0 0 0 353.565 90.381 A 0.913 0.913 0 0 0 353.683 90.843 C 353.801 91.048 354.001 91.193 354.251 91.264 A 1.312 1.312 0 0 0 354.493 91.309 C 355.007 91.266 355.296 90.997 355.359 90.569 A 1.295 1.295 0 0 0 355.372 90.381 C 355.42 85.645 355.518 79.444 355.665 71.68 C 355.909 57.618 356.055 47.12 356.055 40.137 A 639.591 639.591 0 0 0 355.976 29.663 A 408.581 408.581 0 0 0 355.713 20.069 A 162.877 162.877 0 0 0 355.382 14.812 C 354.99 9.963 354.42 6.46 353.657 4.306 A 10.852 10.852 0 0 0 353.467 3.809 A 7.401 7.401 0 0 0 352.902 2.9 C 352.4 2.219 351.862 1.808 351.289 1.667 A 1.91 1.91 0 0 0 350.831 1.612 Z M 83.838 24.366 L 81.251 27.002 A 55.12 55.12 0 0 0 79.045 29.337 A 50.465 50.465 0 0 0 78.907 29.493 C 78.663 29.444 78.223 29.395 77.54 29.395 A 26.961 26.961 0 0 0 74.659 29.547 A 24.456 24.456 0 0 0 71.778 30.03 A 24.728 24.728 0 0 0 69.117 30.786 C 68.241 31.093 67.446 31.437 66.737 31.816 A 11.654 11.654 0 0 0 65.235 32.764 A 13.312 13.312 0 0 0 63.516 34.291 C 62.259 35.638 61.622 37.044 61.622 38.526 A 3.044 3.044 0 0 0 63.936 41.513 A 3.968 3.968 0 0 0 64.991 41.651 A 5.808 5.808 0 0 0 66.022 41.548 A 14.02 14.02 0 0 0 66.7 41.407 C 69.678 40.528 72.315 39.063 74.61 36.963 A 61.359 61.359 0 0 0 79.981 31.641 L 80.518 31.104 C 82.96 31.446 85.254 32.178 87.452 33.204 A 23.241 23.241 0 0 1 99.024 45.704 A 28.656 28.656 0 0 1 99.616 47.364 A 30.461 30.461 0 0 1 100.098 49.024 A 1.81 1.81 0 0 0 100.507 49.691 C 100.944 50.143 101.577 50.327 102.128 50.341 A 2.701 2.701 0 0 0 102.198 50.342 L 102.784 50.293 A 2.946 2.946 0 0 0 103.381 50.11 C 104.166 49.769 104.493 49.152 104.493 48.633 L 104.444 48.194 A 29.076 29.076 0 0 0 101.598 42.485 A 30.248 30.248 0 0 0 100.733 41.211 C 97.657 36.963 93.653 33.741 88.624 31.641 A 32.205 32.205 0 0 0 81.788 29.737 L 85.938 25.635 A 221.549 221.549 0 0 1 90.34 21.309 C 91.042 20.639 91.759 19.966 92.492 19.293 A 93.748 93.748 0 0 1 108.204 7.325 A 39.46 39.46 0 0 1 112.42 5.184 C 117.148 3.141 120.807 2.784 123.096 2.784 A 24.006 24.006 0 0 1 129.316 3.645 A 29.908 29.908 0 0 1 129.737 3.76 C 134.522 5.323 137.94 8.252 139.942 12.598 C 141.504 15.918 142.286 19.385 142.286 22.95 A 23.411 23.411 0 0 1 142.255 24.073 A 61.852 61.852 0 0 1 142.188 25.196 A 46.115 46.115 0 0 1 135.159 45.388 A 54.993 54.993 0 0 1 134.229 46.827 A 63.611 63.611 0 0 1 116.602 64.942 A 50.668 50.668 0 0 1 115.458 65.693 C 114.589 66.249 113.552 66.885 112.346 67.61 A 345.569 345.569 0 0 1 110.596 68.653 L 110.108 68.897 C 109.815 62.696 109.571 56.543 109.376 50.342 C 109.131 42.432 109.034 34.522 108.985 26.612 A 1.134 1.134 0 0 0 108.275 25.576 C 108.069 25.479 107.828 25.418 107.562 25.398 A 2.545 2.545 0 0 0 107.374 25.391 A 1.938 1.938 0 0 0 106.668 25.518 C 106.139 25.724 105.811 26.155 105.811 26.612 A 1500.172 1500.172 0 0 0 105.893 33.03 C 105.956 37.199 106.032 40.864 106.121 44.033 A 449.562 449.562 0 0 0 106.251 48.047 C 106.4 55.337 106.492 61.482 106.527 66.526 A 624.592 624.592 0 0 1 106.543 70.85 L 104.297 71.924 C 103.905 72.138 103.642 72.353 103.511 72.567 A 0.658 0.658 0 0 0 103.418 72.803 A 3.399 3.399 0 0 0 103.354 72.976 C 103.304 73.125 103.277 73.245 103.273 73.32 A 0.352 0.352 0 0 0 103.272 73.34 C 103.272 74.512 104.639 75.098 105.567 75.098 A 3.197 3.197 0 0 0 105.966 75.074 C 106.115 75.055 106.262 75.026 106.417 74.986 A 5.075 5.075 0 0 0 106.543 74.952 L 106.446 86.036 A 1.489 1.489 0 0 0 107.194 87.287 C 107.565 87.526 108.051 87.674 108.594 87.696 A 2.97 2.97 0 0 0 109.656 87.465 C 110.314 87.179 110.743 86.65 110.743 85.987 C 110.596 81.495 110.45 77.002 110.254 72.51 A 125.157 125.157 0 0 0 119.131 65.528 A 94.877 94.877 0 0 0 124.073 60.938 C 128.516 56.885 132.471 52.393 136.036 47.559 A 51.988 51.988 0 0 0 143.449 33.327 A 45.984 45.984 0 0 0 145.313 25.391 A 18.804 18.804 0 0 0 145.466 23.829 A 26.996 26.996 0 0 0 145.508 22.266 C 145.508 17.237 144.288 12.793 141.797 8.985 A 17.84 17.84 0 0 0 135.288 2.946 A 24.413 24.413 0 0 0 131.104 1.123 A 28.43 28.43 0 0 0 123.34 0 C 121.631 0 119.971 0.147 118.311 0.489 A 39.857 39.857 0 0 0 107.442 4.523 C 103.025 6.891 98.556 10.163 94.043 14.356 A 236.015 236.015 0 0 0 88.666 19.471 A 210.826 210.826 0 0 0 83.838 24.366 Z M 35.206 54.786 L 35.206 54.932 A 26.801 26.801 0 0 1 35.555 57.991 A 26.509 26.509 0 0 1 35.596 59.473 A 34.476 34.476 0 0 1 35.238 64.338 A 43.062 43.062 0 0 1 34.376 68.702 A 36.054 36.054 0 0 1 32.508 74.463 C 31.62 76.55 30.56 78.405 29.339 80.022 A 22.029 22.029 0 0 1 28.467 81.104 A 34.562 34.562 0 0 1 26.633 82.978 C 25.32 84.216 24.076 85.154 22.901 85.791 C 21.226 86.65 19.627 87.131 18.137 87.235 A 8.754 8.754 0 0 1 17.53 87.256 C 16.016 87.256 14.649 86.866 13.331 86.084 A 15.427 15.427 0 0 1 7.48 79.793 A 18.759 18.759 0 0 1 6.836 78.418 C 6.299 77.1 5.811 75.782 5.42 74.414 C 4.395 70.557 3.858 66.7 3.858 62.891 L 3.858 61.426 A 57.409 57.409 0 0 1 4.151 55.567 A 82.675 82.675 0 0 1 11.085 30.371 A 9.978 9.978 0 0 1 11.368 29.704 C 11.6 29.201 11.916 28.59 12.309 27.876 A 69.248 69.248 0 0 1 12.94 26.758 L 13.477 25.83 A 100.036 100.036 0 0 1 16.666 20.683 C 17.775 19.016 18.874 17.491 19.965 16.109 A 52.976 52.976 0 0 1 21.241 14.551 A 18.537 18.537 0 0 1 23.126 12.729 C 24.842 11.307 26.499 10.596 28.077 10.596 A 2.394 2.394 0 0 1 29.997 11.661 A 5.821 5.821 0 0 1 30.616 12.696 A 16.116 16.116 0 0 1 31.314 14.284 C 31.63 15.136 31.824 15.937 31.885 16.7 C 31.934 17.676 31.983 18.653 31.983 19.58 A 40.25 40.25 0 0 1 31.251 27.198 C 30.567 30.713 29.542 34.131 28.126 37.403 A 26.043 26.043 0 0 1 26.84 40.041 C 26.363 40.902 25.816 41.794 25.2 42.717 A 49.187 49.187 0 0 1 24.317 43.995 A 1.381 1.381 0 0 1 24.158 44.234 C 23.971 44.466 23.658 44.762 23.194 45.133 A 17.319 17.319 0 0 1 22.901 45.362 L 22.706 45.362 C 21.939 45.362 21.69 46.067 21.68 46.463 A 0.973 0.973 0 0 0 21.68 46.485 A 1.727 1.727 0 0 0 21.69 46.672 C 21.707 46.825 21.742 46.938 21.778 46.973 A 0.751 0.751 0 0 0 22.128 47.272 C 22.224 47.314 22.334 47.343 22.455 47.356 A 1.444 1.444 0 0 0 22.608 47.364 A 1.42 1.42 0 0 0 23.111 47.254 C 23.605 47.063 24.244 46.622 25.028 45.933 A 20.137 20.137 0 0 0 25.391 45.606 A 5.529 5.529 0 0 0 25.871 45.088 C 26.372 44.485 27.034 43.539 27.858 42.237 A 80.602 80.602 0 0 0 28.614 41.016 C 29.151 40.088 29.688 39.161 30.127 38.184 A 49.832 49.832 0 0 0 33.741 27.637 A 41.014 41.014 0 0 0 34.766 18.604 A 105.253 105.253 0 0 1 34.766 18.368 C 34.769 17.033 34.78 15.699 34.18 13.623 A 13.153 13.153 0 0 0 33.218 11.189 C 32.099 9.067 30.506 7.886 28.418 7.666 L 28.077 7.666 A 9.398 9.398 0 0 0 24.303 8.462 A 10.532 10.532 0 0 0 23.438 8.887 C 20.167 10.596 16.944 13.868 13.721 18.702 A 80.034 80.034 0 0 0 12.414 20.66 C 11.534 22.02 10.825 23.212 10.254 24.219 A 24.07 24.07 0 0 1 9.815 24.968 A 8.489 8.489 0 0 1 9.668 25.196 C 9.083 26.172 8.399 27.442 7.667 29.004 C 3.711 37.403 1.27 46.143 0.293 55.176 A 54.306 54.306 0 0 0 0.001 60.84 A 55.167 55.167 0 0 0 0.697 69.824 C 1.237 73.093 2.088 76.102 3.245 78.845 A 34.151 34.151 0 0 0 3.614 79.688 A 20.725 20.725 0 0 0 7.089 85.044 A 18.306 18.306 0 0 0 11.719 88.721 A 12.702 12.702 0 0 0 17.725 90.186 C 19.825 90.186 22.071 89.502 24.415 88.184 A 15.624 15.624 0 0 0 26.756 86.522 A 23.999 23.999 0 0 0 27.149 86.182 A 27.849 27.849 0 0 0 30.518 82.764 A 26.325 26.325 0 0 0 34.399 76.337 C 35.33 74.183 36.072 71.799 36.622 69.19 A 51.441 51.441 0 0 0 37.399 64.178 A 36.856 36.856 0 0 0 37.598 60.45 A 29.802 29.802 0 0 0 37.37 56.687 A 24.644 24.644 0 0 0 37.012 54.59 C 36.888 54.219 36.66 53.987 36.297 53.924 A 1.246 1.246 0 0 0 36.085 53.907 C 35.505 53.907 35.212 54.385 35.206 54.773 A 0.785 0.785 0 0 0 35.206 54.786 Z M 200.196 27.93 L 203.321 27.881 A 32.865 32.865 0 0 1 209.309 28.425 A 33.037 33.037 0 0 1 210.694 28.711 A 10.651 10.651 0 0 1 212.478 29.288 C 213.902 29.903 214.772 30.749 215.171 31.717 A 3.494 3.494 0 0 1 215.43 33.057 A 4.916 4.916 0 0 1 215.363 33.826 C 215.32 34.095 215.259 34.375 215.186 34.668 L 215.137 34.864 A 0.751 0.751 0 0 0 215.206 35.186 C 215.355 35.502 215.714 35.658 216.009 35.688 A 1.033 1.033 0 0 0 216.114 35.694 A 0.617 0.617 0 0 0 216.207 35.687 C 216.307 35.672 216.391 35.634 216.504 35.596 A 1.703 1.703 0 0 0 216.686 35.472 C 216.749 35.422 216.801 35.371 216.843 35.316 A 0.57 0.57 0 0 0 216.944 35.108 A 12.01 12.01 0 0 0 217.197 34.106 C 217.274 33.727 217.321 33.367 217.332 33.02 A 4.932 4.932 0 0 0 217.335 32.862 A 4.238 4.238 0 0 0 216.846 30.811 A 6.514 6.514 0 0 0 214.629 28.443 A 8.246 8.246 0 0 0 213.917 28.028 C 211.133 26.807 208.643 26.172 206.446 26.123 L 202.491 26.123 A 133.738 133.738 0 0 0 200.211 26.142 C 198.571 26.17 197.172 26.23 196.015 26.322 A 32.398 32.398 0 0 0 195.02 26.416 A 52.997 52.997 0 0 0 193.905 26.554 C 192.664 26.719 191.053 26.966 189.112 27.295 L 186.719 27.832 L 186.28 26.416 A 94.152 94.152 0 0 0 183.741 19.58 L 183.448 18.75 C 183.448 18.704 183.448 18.702 183.405 18.702 A 2.79 2.79 0 0 0 183.399 18.702 C 183.101 17.808 182.576 16.573 181.845 15.019 A 110.758 110.758 0 0 0 181.104 13.477 C 179.696 10.707 178.378 9.066 177.193 8.509 A 2.638 2.638 0 0 0 177.051 8.448 A 2.388 2.388 0 0 0 176.362 8.27 A 3.098 3.098 0 0 0 176.026 8.252 A 2.115 2.115 0 0 0 175.786 8.267 C 175.736 8.272 175.686 8.28 175.635 8.289 A 2.052 2.052 0 0 0 175.245 8.399 C 173.918 8.73 172.867 10.487 172.048 13.669 A 29.03 29.03 0 0 0 171.973 13.965 A 88.196 88.196 0 0 0 171.515 15.852 C 171.188 17.263 170.835 18.912 170.456 20.804 A 290.67 290.67 0 0 0 169.922 23.536 C 169.238 27.359 168.587 30.452 168.024 32.816 A 92.822 92.822 0 0 1 167.676 34.229 A 90.23 90.23 0 0 0 160.792 37.647 C 160.303 34.961 160.059 31.787 160.059 28.174 A 58.664 58.664 0 0 1 160.251 23.086 A 40.81 40.81 0 0 1 160.254 23.047 A 216.664 216.664 0 0 1 160.402 21.098 C 160.55 19.251 160.706 17.713 160.889 16.504 L 161.085 16.504 C 161.231 16.504 161.329 16.504 161.426 16.455 C 161.817 16.309 162.012 16.065 162.012 15.723 A 0.617 0.617 0 0 0 162.005 15.63 C 161.99 15.53 161.952 15.446 161.915 15.332 A 1.298 1.298 0 0 0 161.87 15.221 C 161.826 15.12 161.771 15.008 161.733 14.857 A 1.371 1.371 0 0 1 161.719 14.795 A 2.07 2.07 0 0 0 161.51 14.167 C 161.28 13.743 160.9 13.489 160.384 13.435 A 1.95 1.95 0 0 0 160.303 13.428 A 0.859 0.859 0 0 0 159.851 13.541 C 159.492 13.755 159.333 14.267 159.162 15.005 A 27.692 27.692 0 0 0 159.131 15.137 A 31.798 31.798 0 0 0 158.838 16.721 C 158.574 18.343 158.304 20.514 158.014 23.234 A 323.573 323.573 0 0 0 157.911 24.219 A 51.965 51.965 0 0 0 157.569 30.371 A 58.056 58.056 0 0 0 158.252 39.112 L 157.325 39.649 A 81.343 81.343 0 0 0 133.008 61.768 A 34.104 34.104 0 0 0 129.96 66.855 A 37.682 37.682 0 0 0 128.956 69.092 A 25.291 25.291 0 0 0 127.297 74.979 A 21.824 21.824 0 0 0 127.051 78.223 A 13.034 13.034 0 0 0 130.268 86.823 A 17.425 17.425 0 0 0 131.495 88.135 A 22.946 22.946 0 0 0 140.462 92.791 C 142.789 93.437 145.336 93.823 148.098 93.949 A 44.957 44.957 0 0 0 150.147 93.995 A 41.398 41.398 0 0 0 154.008 93.803 A 54.299 54.299 0 0 0 154.542 93.75 A 46.486 46.486 0 0 0 179.078 83.847 A 34.685 34.685 0 0 0 188.086 72.559 C 190.088 68.164 191.26 63.623 191.602 58.985 A 53.503 53.503 0 0 0 191.712 56.983 A 55.256 55.256 0 0 0 191.749 54.981 A 63.154 63.154 0 0 0 191.252 47.297 C 190.953 44.86 190.519 42.308 189.95 39.632 A 108.369 108.369 0 0 0 189.698 38.477 A 76.244 76.244 0 0 0 189.303 36.857 C 188.854 35.091 188.216 32.781 187.369 29.948 A 264.186 264.186 0 0 0 187.305 29.737 C 191.749 28.614 196.045 28.028 200.196 27.93 Z M 248.975 91.309 L 249.122 91.309 A 1.685 1.685 0 0 0 249.425 91.189 C 249.711 91.037 249.854 90.815 249.854 90.479 L 249.854 90.332 A 30.475 30.475 0 0 1 249.495 87.717 C 249.408 86.81 249.351 85.845 249.328 84.826 A 46.087 46.087 0 0 1 249.317 83.789 A 102.026 102.026 0 0 1 249.615 76.076 A 114.26 114.26 0 0 1 250.098 71.143 A 584.505 584.505 0 0 1 250.565 67.263 C 251.023 63.568 251.453 60.437 251.856 57.911 C 252.149 55.713 252.295 54.541 252.295 54.346 A 1.743 1.743 0 0 0 252.162 53.675 C 252.015 53.321 251.764 53.055 251.514 52.93 A 1.216 1.216 0 0 0 251.472 52.917 C 251.297 52.866 250.916 52.784 250.782 52.784 C 250.147 52.784 249.659 53.077 249.366 53.711 L 246.387 59.864 C 244.043 64.698 239.258 72.852 233.741 77.881 C 231.836 79.639 229.932 80.518 228.028 80.567 C 226.404 80.519 224.828 79.397 223.343 77.247 A 15.829 15.829 0 0 1 223.243 77.1 A 25.321 25.321 0 0 1 220.166 70.354 C 219.524 68.221 219.055 65.865 218.755 63.281 A 64.231 64.231 0 0 1 218.36 55.909 A 73.757 73.757 0 0 1 218.984 46.27 A 73.807 73.807 0 0 1 218.995 46.192 C 220.335 36.472 222.557 28.201 225.68 21.356 A 53.75 53.75 0 0 1 228.858 15.381 A 22.829 22.829 0 0 1 230.144 13.637 C 231.064 12.516 231.939 11.735 232.768 11.3 A 3.245 3.245 0 0 1 234.278 10.889 C 234.815 10.889 235.303 11.036 235.743 11.377 A 8.248 8.248 0 0 1 238.558 15.462 C 239.226 17.371 239.454 19.48 239.454 21.192 C 239.307 22.315 239.21 23.438 239.21 24.61 L 239.21 24.756 A 0.712 0.712 0 0 0 239.27 25.038 A 0.977 0.977 0 0 0 239.356 25.196 C 239.52 25.401 239.719 25.503 239.982 25.53 A 1.515 1.515 0 0 0 240.137 25.537 A 0.78 0.78 0 0 0 240.311 25.517 C 240.602 25.451 240.894 25.22 241.016 24.854 C 241.26 23.389 241.407 21.973 241.407 20.606 A 18.885 18.885 0 0 0 240.59 15.029 C 240.168 13.676 239.593 12.468 238.894 11.485 A 7.291 7.291 0 0 0 237.159 9.717 A 4.583 4.583 0 0 0 234.327 8.789 A 6.445 6.445 0 0 0 232.422 9.082 A 6.769 6.769 0 0 0 230.476 10.038 C 229.417 10.768 228.334 11.851 227.234 13.303 A 25.836 25.836 0 0 0 226.612 14.161 A 54.537 54.537 0 0 0 221.511 23.795 C 218.14 31.849 215.689 41.793 214.852 51.736 A 92.366 92.366 0 0 0 214.795 52.442 A 77.898 77.898 0 0 0 214.649 57.178 A 58.317 58.317 0 0 0 215.217 65.585 C 215.647 68.531 216.321 71.207 217.239 73.617 A 27.001 27.001 0 0 0 219.922 78.907 A 19.092 19.092 0 0 0 221.737 81.045 C 223.355 82.671 225.007 83.59 226.71 83.838 A 9.279 9.279 0 0 0 227.578 83.957 A 7.514 7.514 0 0 0 228.223 83.985 A 8.96 8.96 0 0 0 231.487 83.361 A 10.697 10.697 0 0 0 232.764 82.764 A 21.847 21.847 0 0 0 236.846 79.786 C 238.344 78.417 239.788 76.773 241.163 74.854 C 243.879 70.979 246.109 67.389 247.85 64.009 A 62.086 62.086 0 0 0 248.34 63.037 A 259.279 259.279 0 0 0 247.663 70.442 C 247.484 72.797 247.358 74.999 247.286 77.051 A 108.114 108.114 0 0 0 247.217 80.811 C 247.217 84.62 247.51 87.891 248.047 90.674 A 1.083 1.083 0 0 0 248.201 90.981 C 248.369 91.206 248.62 91.309 248.975 91.309 Z M 439.844 55.079 L 438.965 54.395 A 106.974 106.974 0 0 0 427.93 48.243 L 424.805 46.729 A 48.065 48.065 0 0 1 417.423 42.375 C 411.434 38.009 408.133 32.878 407.52 27.002 L 407.471 25.782 A 15.527 15.527 0 0 1 407.455 25.066 C 407.455 22.55 408.067 20.069 409.242 17.673 A 20.403 20.403 0 0 1 409.864 16.504 C 411.622 13.135 414.112 10.45 417.383 8.35 A 26.92 26.92 0 0 1 419.261 7.296 C 420.617 6.61 421.802 6.192 422.824 6.032 A 5.872 5.872 0 0 1 423.731 5.957 A 5.42 5.42 0 0 1 424.177 5.969 A 1.516 1.516 0 0 1 424.415 6.006 C 426.561 6.319 427.725 7.861 427.905 10.557 A 11.558 11.558 0 0 1 427.93 11.329 A 11.065 11.065 0 0 1 427.724 13.412 A 12.821 12.821 0 0 1 427.344 14.893 A 11.095 11.095 0 0 1 423.731 20.264 C 423.617 20.35 423.536 20.436 423.479 20.521 A 0.757 0.757 0 0 0 423.389 20.704 A 2.155 2.155 0 0 0 423.421 21.102 C 423.506 21.545 423.764 21.763 424.309 21.777 A 2.229 2.229 0 0 0 424.366 21.778 C 424.439 21.778 424.524 21.766 424.61 21.741 A 0.881 0.881 0 0 0 424.854 21.631 A 13.822 13.822 0 0 0 429.85 13.156 A 13.695 13.695 0 0 0 430.079 10.694 A 9.407 9.407 0 0 0 429.749 8.364 A 7.072 7.072 0 0 0 428.126 5.42 A 7.497 7.497 0 0 0 427.224 4.573 C 426.499 4.004 425.774 3.711 425.049 3.711 L 423.487 3.711 C 421.485 3.711 418.995 4.59 416.016 6.299 A 24.96 24.96 0 0 0 407.325 15.235 A 22.91 22.91 0 0 0 404.633 22.981 A 21.415 21.415 0 0 0 404.395 26.172 L 404.395 27.198 C 405.017 34.949 409.615 41.575 418.13 47.014 A 56.725 56.725 0 0 0 423.047 49.805 L 426.124 51.368 A 158.456 158.456 0 0 1 436.28 57.032 C 427.784 61.963 420.264 67.237 413.721 72.852 C 407.422 78.223 404.297 82.325 404.297 85.205 C 404.297 86.862 405.164 88.128 407.103 88.8 A 7.383 7.383 0 0 0 407.471 88.916 C 408.057 89.063 408.741 89.161 409.522 89.161 A 17.433 17.433 0 0 0 411.76 88.999 C 413.637 88.754 415.907 88.232 418.555 87.452 A 61.062 61.062 0 0 0 419.92 87.059 C 421.186 86.679 422.156 86.341 422.852 86.084 A 50.247 50.247 0 0 0 426.289 84.709 C 428.052 83.93 429.92 82.997 431.788 81.931 A 49.866 49.866 0 0 0 440.088 76.075 C 443.087 73.304 444.935 70.503 445.609 67.72 A 10.113 10.113 0 0 0 445.899 65.332 A 11.324 11.324 0 0 0 445.802 63.878 A 14.23 14.23 0 0 0 445.752 63.526 A 12.713 12.713 0 0 0 443.034 58.093 A 16.771 16.771 0 0 0 441.456 56.446 A 113.357 113.357 0 0 1 446.144 53.985 C 447.623 53.257 449.044 52.61 450.406 52.056 A 50.305 50.305 0 0 1 450.538 52.002 A 1.093 1.093 0 0 0 450.731 51.892 C 450.973 51.719 451.084 51.482 451.115 51.313 A 0.524 0.524 0 0 0 451.124 51.221 A 0.595 0.595 0 0 0 451.113 51.105 C 451.102 51.051 451.084 51.003 451.064 50.958 A 2.078 2.078 0 0 0 451.026 50.879 C 450.879 50.489 450.586 50.293 450.196 50.293 A 0.617 0.617 0 0 0 450.103 50.3 C 450.003 50.315 449.919 50.353 449.805 50.391 A 72.88 72.88 0 0 0 445.355 52.296 C 443.601 53.114 441.764 54.041 439.844 55.079 Z M 50.245 72.217 L 56.202 70.02 L 67.823 65.625 L 74.024 63.233 A 2209.561 2209.561 0 0 1 75.202 72.221 C 75.505 74.575 75.788 76.809 76.047 78.924 A 681.718 681.718 0 0 1 76.758 84.912 A 710.339 710.339 0 0 1 77.107 88.061 C 77.51 91.774 77.738 94.219 77.812 95.412 A 18.235 18.235 0 0 1 77.833 95.801 A 0.953 0.953 0 0 0 77.991 96.34 C 78.133 96.55 78.362 96.69 78.639 96.722 A 1.067 1.067 0 0 0 78.76 96.729 A 0.953 0.953 0 0 0 79.299 96.571 C 79.509 96.429 79.649 96.2 79.681 95.923 A 1.067 1.067 0 0 0 79.688 95.801 A 23.603 23.603 0 0 0 79.662 94.847 C 79.586 93.083 79.343 89.649 78.907 84.571 C 78.37 78.321 77.686 70.85 76.758 62.207 A 660.605 660.605 0 0 1 78.482 61.5 C 80.458 60.693 81.761 60.176 82.411 59.949 A 7.228 7.228 0 0 1 82.667 59.864 C 83.106 59.717 83.301 59.424 83.301 58.985 A 0.978 0.978 0 0 0 83.206 58.548 A 0.755 0.755 0 0 0 82.862 58.204 A 2.262 2.262 0 0 0 82.709 58.133 C 82.651 58.11 82.598 58.092 82.547 58.079 A 0.718 0.718 0 0 0 82.374 58.057 C 82.288 58.057 81.191 58.357 79.05 58.923 A 746.978 746.978 0 0 1 78.077 59.18 L 76.465 59.62 L 76.417 59.375 A 345.228 345.228 0 0 1 73.194 40.528 A 266.522 266.522 0 0 1 71.29 23.145 A 161.017 161.017 0 0 0 70.264 18.079 C 69.165 13.103 68.062 9.547 66.936 7.41 A 10.735 10.735 0 0 0 66.553 6.739 C 65.707 5.639 64.861 5.015 64.046 4.868 A 2.105 2.105 0 0 0 63.672 4.834 A 2.374 2.374 0 0 0 63.105 4.927 A 91.793 91.793 0 0 0 63.086 4.932 A 2.213 2.213 0 0 0 61.869 5.528 C 60.865 6.409 59.876 8.251 58.936 11.036 A 97.337 97.337 0 0 0 57.4 16.094 C 56.417 19.642 55.412 23.872 54.402 28.784 A 296.725 296.725 0 0 0 53.907 31.25 A 459.019 459.019 0 0 0 49.986 53.944 A 556.081 556.081 0 0 0 48.877 61.817 L 47.852 69.629 A 66.781 66.781 0 0 0 43.347 72.126 A 42.875 42.875 0 0 0 40.626 73.926 A 15.477 15.477 0 0 0 38.086 76.123 A 5.411 5.411 0 0 0 37.692 76.646 C 37.408 77.08 37.256 77.481 37.256 77.832 C 37.256 78.648 37.733 79.123 38.715 79.257 A 4.743 4.743 0 0 0 39.356 79.297 A 1.802 1.802 0 0 0 39.761 79.255 C 39.908 79.221 40.031 79.168 40.131 79.098 A 0.842 0.842 0 0 0 40.479 78.37 C 40.479 77.879 40.276 77.592 39.869 77.509 A 1.205 1.205 0 0 0 39.747 77.491 A 1.418 1.418 0 0 1 39.872 77.383 C 40.082 77.219 40.471 76.962 41.016 76.612 A 24.556 24.556 0 0 1 42.835 75.537 C 44.125 74.842 45.667 74.126 47.461 73.389 A 333.501 333.501 0 0 0 46.885 79.066 C 46.39 84.415 46.143 88.782 46.143 92.188 C 46.143 95.213 46.359 97.252 46.765 98.33 A 2.141 2.141 0 0 0 47.12 98.975 A 1.996 1.996 0 0 0 47.623 99.349 A 1.459 1.459 0 0 0 48.292 99.512 C 48.678 99.512 49.139 99.286 49.61 98.801 A 4.309 4.309 0 0 0 49.805 98.584 A 0.709 0.709 0 0 0 49.999 98.102 A 1.118 1.118 0 0 0 50.001 98.047 C 50.001 97.472 49.53 97.132 49.143 97.12 A 0.681 0.681 0 0 0 49.122 97.12 A 1.08 1.08 0 0 0 48.804 97.164 A 0.706 0.706 0 0 0 48.438 97.412 C 48.27 97.245 48.175 96.429 48.151 94.996 A 45.963 45.963 0 0 1 48.145 94.239 A 76.749 76.749 0 0 1 48.308 89.538 C 48.588 85.039 49.227 79.271 50.245 72.217 Z M 263.624 72.217 L 269.581 70.02 L 281.202 65.625 L 287.403 63.233 A 2209.561 2209.561 0 0 1 288.581 72.221 C 288.884 74.575 289.167 76.809 289.426 78.924 A 681.718 681.718 0 0 1 290.137 84.912 A 710.339 710.339 0 0 1 290.486 88.061 C 290.888 91.774 291.117 94.219 291.191 95.412 A 18.235 18.235 0 0 1 291.211 95.801 A 0.953 0.953 0 0 0 291.369 96.34 C 291.512 96.55 291.741 96.69 292.018 96.722 A 1.067 1.067 0 0 0 292.139 96.729 A 0.953 0.953 0 0 0 292.678 96.571 C 292.888 96.429 293.028 96.2 293.06 95.923 A 1.067 1.067 0 0 0 293.067 95.801 A 23.603 23.603 0 0 0 293.041 94.847 C 292.965 93.083 292.722 89.649 292.286 84.571 C 291.749 78.321 291.065 70.85 290.137 62.207 A 660.605 660.605 0 0 1 291.861 61.5 C 293.836 60.693 295.14 60.176 295.79 59.949 A 7.228 7.228 0 0 1 296.045 59.864 C 296.485 59.717 296.68 59.424 296.68 58.985 A 0.978 0.978 0 0 0 296.584 58.548 A 0.755 0.755 0 0 0 296.241 58.204 A 2.262 2.262 0 0 0 296.087 58.133 C 296.03 58.11 295.977 58.092 295.926 58.079 A 0.718 0.718 0 0 0 295.752 58.057 C 295.667 58.057 294.57 58.357 292.429 58.923 A 746.978 746.978 0 0 1 291.456 59.18 L 289.844 59.62 L 289.795 59.375 A 345.228 345.228 0 0 1 286.573 40.528 A 266.522 266.522 0 0 1 284.668 23.145 A 161.017 161.017 0 0 0 283.643 18.079 C 282.544 13.103 281.441 9.547 280.315 7.41 A 10.735 10.735 0 0 0 279.932 6.739 C 279.086 5.639 278.24 5.015 277.425 4.868 A 2.105 2.105 0 0 0 277.051 4.834 A 2.374 2.374 0 0 0 276.484 4.927 A 91.793 91.793 0 0 0 276.465 4.932 A 2.213 2.213 0 0 0 275.248 5.528 C 274.244 6.409 273.255 8.251 272.315 11.036 A 97.337 97.337 0 0 0 270.779 16.094 C 269.796 19.642 268.79 23.872 267.781 28.784 A 296.725 296.725 0 0 0 267.286 31.25 A 459.019 459.019 0 0 0 263.365 53.944 A 556.081 556.081 0 0 0 262.256 61.817 L 261.231 69.629 A 66.781 66.781 0 0 0 256.726 72.126 A 42.875 42.875 0 0 0 254.004 73.926 A 15.477 15.477 0 0 0 251.465 76.123 A 5.411 5.411 0 0 0 251.071 76.646 C 250.787 77.08 250.635 77.481 250.635 77.832 C 250.635 78.648 251.112 79.123 252.094 79.257 A 4.743 4.743 0 0 0 252.735 79.297 A 1.802 1.802 0 0 0 253.139 79.255 C 253.287 79.221 253.41 79.168 253.51 79.098 A 0.842 0.842 0 0 0 253.858 78.37 C 253.858 77.879 253.654 77.592 253.247 77.509 A 1.205 1.205 0 0 0 253.126 77.491 A 1.418 1.418 0 0 1 253.251 77.383 C 253.461 77.219 253.85 76.962 254.395 76.612 A 24.556 24.556 0 0 1 256.214 75.537 C 257.504 74.842 259.046 74.126 260.84 73.389 A 333.501 333.501 0 0 0 260.264 79.066 C 259.769 84.415 259.522 88.782 259.522 92.188 C 259.522 95.213 259.738 97.252 260.144 98.33 A 2.141 2.141 0 0 0 260.499 98.975 A 1.996 1.996 0 0 0 261.002 99.349 A 1.459 1.459 0 0 0 261.67 99.512 C 262.057 99.512 262.518 99.286 262.989 98.801 A 4.309 4.309 0 0 0 263.184 98.584 A 0.709 0.709 0 0 0 263.378 98.102 A 1.118 1.118 0 0 0 263.379 98.047 C 263.379 97.472 262.909 97.132 262.522 97.12 A 0.681 0.681 0 0 0 262.501 97.12 A 1.08 1.08 0 0 0 262.182 97.164 A 0.706 0.706 0 0 0 261.817 97.412 C 261.649 97.245 261.553 96.429 261.53 94.996 A 45.963 45.963 0 0 1 261.524 94.239 A 76.749 76.749 0 0 1 261.687 89.538 C 261.966 85.039 262.606 79.271 263.624 72.217 Z M 371.619 8.272 C 371.626 8.27 371.634 8.267 371.642 8.265 A 2.332 2.332 0 0 0 371.68 8.252 C 371.802 8.091 371.956 7.996 372.117 7.996 A 0.412 0.412 0 0 1 372.217 8.008 L 372.461 8.057 L 372.852 8.008 A 2.551 2.551 0 0 1 372.933 8.001 C 373.814 7.936 374.363 8.369 374.268 8.985 L 374.219 9.327 L 374.024 10.108 A 64.213 64.213 0 0 1 377.251 8.991 A 57.273 57.273 0 0 1 394.581 6.25 L 394.727 6.25 C 395.118 6.25 395.655 6.495 395.655 7.08 C 395.655 7.471 395.411 7.911 394.874 7.959 A 186.882 186.882 0 0 0 373.438 12.891 C 371.631 21.729 370.264 30.762 369.336 39.942 A 275.785 275.785 0 0 0 368.638 48.74 A 204.581 204.581 0 0 0 368.213 61.524 A 194.911 194.911 0 0 0 368.225 63.649 C 368.271 67.902 368.457 71.685 368.751 75 A 48.375 48.375 0 0 0 369.532 79.639 A 30.689 30.689 0 0 0 370.279 82.277 C 370.959 84.296 371.763 85.796 372.69 86.779 A 4.029 4.029 0 0 0 375.684 88.184 A 5.678 5.678 0 0 0 376.556 88.116 C 377.197 88.017 377.842 87.808 378.499 87.49 A 10.72 10.72 0 0 0 380.03 86.573 A 24.313 24.313 0 0 0 380.944 85.925 C 384.97 82.938 388.727 78.347 391.389 74.353 A 55.356 55.356 0 0 0 392.92 71.924 A 68.408 68.408 0 0 0 394.004 70.07 C 394.727 68.788 395.526 67.283 396.387 65.528 C 396.648 64.977 396.875 64.426 397.169 64.069 A 0.936 0.936 0 0 1 397.901 63.672 C 398.047 63.672 398.194 63.721 398.34 63.77 A 1.088 1.088 0 0 1 398.576 63.891 A 0.778 0.778 0 0 1 398.926 64.551 L 398.829 64.893 L 398.194 66.26 L 396.583 69.678 A 102.718 102.718 0 0 1 396.576 69.691 A 49.602 49.602 0 0 1 394.922 72.901 A 61.187 61.187 0 0 1 394.431 73.76 C 393.923 74.633 393.362 75.548 392.749 76.502 A 93.886 93.886 0 0 1 390.674 79.59 A 58.799 58.799 0 0 1 389.178 81.599 C 387.345 83.951 385.337 86.131 383.239 87.821 A 16.85 16.85 0 0 1 378.37 90.674 A 9.059 9.059 0 0 1 376.954 91.071 A 7.523 7.523 0 0 1 375.538 91.211 C 374.708 91.211 373.926 91.065 373.096 90.772 C 371.742 90.321 370.487 89.351 369.313 87.863 A 17.768 17.768 0 0 1 367.92 85.791 C 365.296 80.497 364.148 72.946 364.148 62.402 A 154.258 154.258 0 0 1 364.161 60.45 L 364.21 56.592 A 168.053 168.053 0 0 1 364.965 42.854 A 194.031 194.031 0 0 1 370.655 11.621 A 499.989 499.989 0 0 0 370.882 10.641 C 371.22 9.173 371.395 8.391 371.436 8.35 C 371.476 8.31 371.516 8.303 371.608 8.275 A 3.812 3.812 0 0 0 371.609 8.275 M 169.825 38.721 L 170.899 35.157 C 175.001 33.399 179.249 31.885 183.594 30.664 C 184.62 34.082 185.401 36.914 185.889 39.161 C 187.305 44.971 187.989 50.537 187.989 55.909 A 37.706 37.706 0 0 1 184.717 71.289 C 181.983 76.905 177.881 81.299 172.461 84.571 A 45.05 45.05 0 0 1 154.102 90.772 C 152.686 90.967 151.221 91.065 149.805 91.065 C 142.969 91.065 137.598 89.454 133.692 86.182 A 12.556 12.556 0 0 1 131.166 82.76 A 10.599 10.599 0 0 1 130.079 78.028 A 21.053 21.053 0 0 1 131.739 69.825 A 34.585 34.585 0 0 1 134.1 65.101 A 28.185 28.185 0 0 1 135.401 63.135 C 141.553 54.493 149.317 47.266 158.741 41.504 C 159.522 44.922 160.889 46.973 162.793 47.608 A 7.49 7.49 0 0 0 163.034 47.652 C 163.187 47.678 163.346 47.698 163.493 47.704 A 2.058 2.058 0 0 0 163.575 47.705 A 3.023 3.023 0 0 0 165.376 47.067 C 166.071 46.559 166.741 45.749 167.379 44.635 A 16.318 16.318 0 0 0 167.92 43.604 A 37.421 37.421 0 0 0 168.807 41.65 C 169.037 41.1 169.237 40.579 169.406 40.09 A 17.988 17.988 0 0 0 169.825 38.721 Z M 63.721 9.62 L 63.965 10.205 A 44.227 44.227 0 0 1 65.731 15.635 C 67.454 22.036 69.356 32.098 71.46 45.808 A 1049.222 1049.222 0 0 1 73.585 60.401 A 247.152 247.152 0 0 0 63.77 63.233 C 59.424 64.551 55.127 66.211 50.831 68.213 A 628.893 628.893 0 0 1 57.471 31.934 A 330.745 330.745 0 0 1 58.909 25.572 C 59.988 21.017 61.019 17.191 62.002 14.103 A 71.565 71.565 0 0 1 62.891 11.475 C 63.117 10.797 63.385 10.244 63.656 9.74 A 21.359 21.359 0 0 1 63.721 9.62 Z M 277.1 9.62 L 277.344 10.205 A 44.227 44.227 0 0 1 279.11 15.635 C 280.833 22.036 282.735 32.098 284.839 45.808 A 1049.222 1049.222 0 0 1 286.963 60.401 A 247.152 247.152 0 0 0 277.149 63.233 C 272.803 64.551 268.506 66.211 264.21 68.213 A 628.893 628.893 0 0 1 270.85 31.934 A 330.745 330.745 0 0 1 272.288 25.572 C 273.367 21.017 274.398 17.191 275.381 14.103 A 71.565 71.565 0 0 1 276.27 11.475 C 276.496 10.797 276.764 10.244 277.035 9.74 A 21.359 21.359 0 0 1 277.1 9.62 Z M 407.606 84.868 A 1.283 1.283 0 0 0 407.569 85.157 A 0.82 0.82 0 0 0 407.572 85.232 C 407.586 85.376 407.637 85.494 407.721 85.594 A 0.928 0.928 0 0 0 407.96 85.791 A 0.562 0.562 0 0 0 407.986 85.806 C 408.241 85.941 408.766 85.987 409.473 85.987 A 10.546 10.546 0 0 0 410.575 85.924 C 410.973 85.882 411.401 85.818 411.857 85.734 A 25.045 25.045 0 0 0 413.379 85.401 A 71.904 71.904 0 0 0 415.512 84.861 A 61.252 61.252 0 0 0 421.534 82.911 C 423.989 81.98 426.938 80.584 429.886 78.839 A 48.993 48.993 0 0 0 437.403 73.438 A 23.541 23.541 0 0 0 438.98 71.822 A 16.582 16.582 0 0 0 441.016 68.995 A 8.196 8.196 0 0 0 441.089 68.862 A 7.22 7.22 0 0 0 441.993 65.43 A 6.521 6.521 0 0 0 441.962 64.838 A 32.289 32.289 0 0 0 441.895 64.209 A 9.786 9.786 0 0 0 440.293 60.771 A 12.695 12.695 0 0 0 438.086 58.448 A 164.296 164.296 0 0 0 420.215 70.996 A 135.671 135.671 0 0 0 418.721 72.23 C 412.555 77.396 408.945 81.425 407.813 84.278 C 407.72 84.494 407.647 84.691 407.606 84.868 Z M 234.668 50.977 L 234.766 50.977 A 1.479 1.479 0 0 0 235.003 51.013 C 235.135 51.024 235.286 51.026 235.466 51.026 A 83.009 83.009 0 0 0 235.547 51.026 L 236.133 51.026 L 257.325 47.022 C 257.681 46.192 257.908 45.426 257.982 44.723 A 4.636 4.636 0 0 0 258.008 44.239 C 258.008 42.84 257.485 42.204 256.437 42.282 A 2.509 2.509 0 0 0 256.397 42.286 L 255.762 42.334 L 234.668 48.975 A 0.652 0.652 0 0 0 234.247 49.234 C 234.085 49.437 233.985 49.734 233.985 50.049 C 234.025 50.526 234.226 50.841 234.484 50.942 A 0.504 0.504 0 0 0 234.668 50.977 Z M 174.854 17.676 L 174.952 17.237 A 42.394 42.394 0 0 1 175.392 15.266 C 175.664 14.176 175.957 13.234 176.27 12.452 C 176.828 13.337 177.43 14.421 178.046 15.734 A 41.52 41.52 0 0 1 178.956 17.823 C 179.605 19.354 180.387 21.282 181.259 23.648 A 143.534 143.534 0 0 1 181.397 24.024 C 181.934 25.586 182.471 27.149 182.96 28.76 C 179.102 29.786 175.293 31.055 171.583 32.569 A 162.407 162.407 0 0 0 173.438 24.121 C 173.877 21.924 174.366 19.776 174.854 17.676 Z M 375.44 56.983 L 375.684 56.934 A 598.377 598.377 0 0 1 377.351 56.595 C 379.877 56.086 384.347 55.201 390.776 53.998 A 1420.616 1420.616 0 0 1 395.215 53.174 C 396.061 52.907 396.542 52.599 396.731 52.288 A 0.721 0.721 0 0 0 396.778 52.198 C 396.924 51.857 396.973 51.565 396.973 51.418 A 0.631 0.631 0 0 0 396.973 51.416 A 1.166 1.166 0 0 0 396.933 51.119 C 396.799 50.612 396.32 50.062 395.398 49.932 A 3.049 3.049 0 0 0 394.971 49.903 A 3.227 3.227 0 0 0 394.583 49.933 C 394.113 49.993 393.381 50.14 392.399 50.376 A 70.48 70.48 0 0 0 391.358 50.635 A 257.409 257.409 0 0 0 387.208 51.727 C 385.985 52.059 384.703 52.415 383.361 52.794 A 533.288 533.288 0 0 0 379.151 54.004 C 377.397 54.499 376.099 54.911 375.333 55.163 A 60.567 60.567 0 0 0 375.147 55.225 A 1.27 1.27 0 0 0 374.816 55.388 A 0.787 0.787 0 0 0 374.463 56.055 C 374.463 56.778 375.082 57.025 375.427 56.985 A 0.553 0.553 0 0 0 375.44 56.983 Z M 77.247 30.909 L 77.637 30.909 A 63.307 63.307 0 0 1 72.901 35.743 A 17.919 17.919 0 0 1 65.967 39.844 A 4.351 4.351 0 0 1 65.572 39.939 A 2.868 2.868 0 0 1 65.04 39.991 C 64.45 39.991 64.018 39.737 63.796 39.23 A 1.893 1.893 0 0 1 63.672 38.819 L 63.624 38.33 A 3.275 3.275 0 0 1 63.821 37.253 C 64.006 36.724 64.317 36.168 64.747 35.596 A 6.877 6.877 0 0 1 66.519 33.851 C 67.709 33.014 69.298 32.307 71.268 31.723 A 30.446 30.446 0 0 1 72.266 31.446 C 73.926 31.104 75.586 30.909 77.247 30.909 Z M 166.944 36.963 L 166.651 37.989 C 166.163 39.6 165.577 41.162 164.942 42.676 C 164.61 43.387 164.14 44.098 163.532 44.854 A 18.035 18.035 0 0 1 163.477 44.922 A 3.224 3.224 0 0 1 162.992 44.385 C 162.797 44.116 162.616 43.793 162.452 43.409 A 22.985 22.985 0 0 1 161.774 41.698 A 16.026 16.026 0 0 1 161.28 39.991 C 163.135 38.916 165.04 37.891 166.944 36.963 Z M 159.864 14.991 C 159.864 14.942 159.913 14.893 159.961 14.893 A 0.95 0.95 0 0 1 160.034 14.971 C 160.048 14.988 160.061 15.007 160.075 15.03 A 0.713 0.713 0 0 1 160.108 15.088 C 159.983 15.088 159.894 15.053 159.87 15.012 A 0.043 0.043 0 0 1 159.864 14.991 Z M 38.965 77.344 L 39.014 77.295 L 39.112 77.295 A 0.237 0.237 0 0 0 39.125 77.389 C 39.13 77.402 39.138 77.415 39.148 77.428 A 0.19 0.19 0 0 0 39.161 77.442 A 0.522 0.522 0 0 1 39.1 77.439 C 39.03 77.43 38.992 77.407 38.975 77.38 A 0.069 0.069 0 0 1 38.965 77.344 Z M 252.344 77.344 L 252.393 77.295 L 252.491 77.295 A 0.237 0.237 0 0 0 252.504 77.389 C 252.509 77.402 252.517 77.415 252.527 77.428 A 0.19 0.19 0 0 0 252.54 77.442 A 0.522 0.522 0 0 1 252.479 77.439 C 252.409 77.43 252.371 77.407 252.354 77.38 A 0.069 0.069 0 0 1 252.344 77.344 Z M 48.194 97.705 L 48.096 97.705 L 48.096 97.657 L 48.243 97.657 L 48.194 97.705 Z M 261.573 97.705 L 261.475 97.705 L 261.475 97.657 L 261.622 97.657 L 261.573 97.705 Z M 371.616 8.273 C 371.615 8.273 371.615 8.273 371.614 8.273" vector-effect="non-scaling-stroke"/></g></svg>